<?xml version="1.0" encoding="utf-8"?>
<!-- Generator: Adobe Illustrator 27.7.0, SVG Export Plug-In . SVG Version: 6.00 Build 0)  -->
<svg version="1.1" id="圖層_1" xmlns="http://www.w3.org/2000/svg" xmlns:xlink="http://www.w3.org/1999/xlink" x="0px" y="0px"
	 viewBox="0 0 510.64 456.24" style="enable-background:new 0 0 510.64 456.24;" xml:space="preserve">
<style type="text/css">
	.st0{clip-path:url(#SVGID_00000105396152937467645400000000755510764210302395_);}
	.st1{clip-path:url(#SVGID_00000125567448991429108880000017463541186957217721_);fill:#00CC99;}
	.st2{clip-path:url(#SVGID_00000130610617265910212360000008772333907763130518_);}
	.st3{clip-path:url(#SVGID_00000028305233258547729300000013773225857750237372_);fill:#00CC99;}
	.st4{clip-path:url(#SVGID_00000151528489992834392370000005138442697003161741_);}
	.st5{clip-path:url(#SVGID_00000080186193452301524010000016956577963530153865_);fill:#00CC99;}
	.st6{clip-path:url(#SVGID_00000108997419234172668390000010025915272414030978_);}
	.st7{clip-path:url(#SVGID_00000060014242769889823820000002219838156391668890_);fill:#00CC99;}
</style>
<g>
	<g>
		<defs>
			<path id="SVGID_1_" d="M499.71,203.26L399.48,29.86C391.58,16.19,372.18,5,356.37,5H155.9c-15.81,0-35.21,11.19-43.11,24.86
				L12.56,203.26c-7.9,13.67-7.9,36.05,0,49.72l100.23,173.4c7.9,13.67,27.3,24.86,43.11,24.86h200.47
				c15.81,0,35.21-11.19,43.11-24.86l100.23-173.4C507.62,239.3,507.62,216.93,499.71,203.26 M459.45,236.65l-94.26,163.07
				c-2.12,3.67-10.55,8.53-14.79,8.53H161.87c-4.24,0-12.68-4.86-14.8-8.53L52.82,236.65c-2.12-3.67-2.12-13.39,0-17.06
				l94.26-163.07c2.12-3.67,10.55-8.53,14.8-8.53H350.4c4.24,0,12.67,4.86,14.79,8.53l94.26,163.07
				C461.57,223.25,461.57,232.98,459.45,236.65"/>
		</defs>
		<clipPath id="SVGID_00000129205849324982898040000013250126821536837508_">
			<use xlink:href="#SVGID_1_"  style="overflow:visible;"/>
		</clipPath>
		<g style="clip-path:url(#SVGID_00000129205849324982898040000013250126821536837508_);">
			<g>
				<defs>
					<rect id="SVGID_00000059303035565905801200000014542697107578073516_" x="-143.78" y="-72.31" width="800" height="600"/>
				</defs>
				<clipPath id="SVGID_00000059288199089589549320000017195243138958121641_">
					<use xlink:href="#SVGID_00000059303035565905801200000014542697107578073516_"  style="overflow:visible;"/>
				</clipPath>
				
					<rect x="1.63" style="clip-path:url(#SVGID_00000059288199089589549320000017195243138958121641_);fill:#00CC99;" width="509.01" height="456.24"/>
			</g>
		</g>
	</g>
</g>
<g>
	<g>
		<defs>
			<rect id="SVGID_00000116193886593643068270000015535792568515717303_" x="107.18" y="231.03" width="148.96" height="31.58"/>
		</defs>
		<clipPath id="SVGID_00000173129412023679641380000000599244978594778003_">
			<use xlink:href="#SVGID_00000116193886593643068270000015535792568515717303_"  style="overflow:visible;"/>
		</clipPath>
		<g style="clip-path:url(#SVGID_00000173129412023679641380000000599244978594778003_);">
			<g>
				<defs>
					<rect id="SVGID_00000047764093993610862060000015398127203016135820_" x="-143.78" y="-72.31" width="800" height="600"/>
				</defs>
				<clipPath id="SVGID_00000056399584419706777460000014033035666298668199_">
					<use xlink:href="#SVGID_00000047764093993610862060000015398127203016135820_"  style="overflow:visible;"/>
				</clipPath>
				
					<rect x="102.18" y="226.03" style="clip-path:url(#SVGID_00000056399584419706777460000014033035666298668199_);fill:#00CC99;" width="158.96" height="41.58"/>
			</g>
		</g>
	</g>
</g>
<g>
	<g>
		<defs>
			<rect id="SVGID_00000183938413167047960800000006151598511027881629_" x="136.39" y="287.65" width="119.75" height="31.58"/>
		</defs>
		<clipPath id="SVGID_00000051346370342447923550000017423167000578626184_">
			<use xlink:href="#SVGID_00000183938413167047960800000006151598511027881629_"  style="overflow:visible;"/>
		</clipPath>
		<g style="clip-path:url(#SVGID_00000051346370342447923550000017423167000578626184_);">
			<g>
				<defs>
					<rect id="SVGID_00000168802520687833299830000014119264104524012166_" x="-143.78" y="-72.31" width="800" height="600"/>
				</defs>
				<clipPath id="SVGID_00000057834652490184470830000006727887009099096204_">
					<use xlink:href="#SVGID_00000168802520687833299830000014119264104524012166_"  style="overflow:visible;"/>
				</clipPath>
				
					<rect x="131.39" y="282.65" style="clip-path:url(#SVGID_00000057834652490184470830000006727887009099096204_);fill:#00CC99;" width="129.75" height="41.58"/>
			</g>
		</g>
	</g>
</g>
<g>
	<g>
		<defs>
			<rect id="SVGID_00000033367876580652421830000008469082799089517985_" x="165.59" y="344.29" width="90.54" height="31.58"/>
		</defs>
		<clipPath id="SVGID_00000058579585662824441720000014508799355489508008_">
			<use xlink:href="#SVGID_00000033367876580652421830000008469082799089517985_"  style="overflow:visible;"/>
		</clipPath>
		<g style="clip-path:url(#SVGID_00000058579585662824441720000014508799355489508008_);">
			<g>
				<defs>
					<rect id="SVGID_00000183226285367830944160000000538543378408911538_" x="-143.78" y="-72.31" width="800" height="600"/>
				</defs>
				<clipPath id="SVGID_00000062898199702751730150000006742407202460045216_">
					<use xlink:href="#SVGID_00000183226285367830944160000000538543378408911538_"  style="overflow:visible;"/>
				</clipPath>
				
					<rect x="160.59" y="339.29" style="clip-path:url(#SVGID_00000062898199702751730150000006742407202460045216_);fill:#00CC99;" width="100.54" height="41.58"/>
			</g>
		</g>
	</g>
</g>
</svg>
