<?xml version="1.0" encoding="utf-8"?>
<!-- Generator: Adobe Illustrator 27.7.0, SVG Export Plug-In . SVG Version: 6.00 Build 0)  -->
<svg version="1.1" id="圖層_1" xmlns="http://www.w3.org/2000/svg" xmlns:xlink="http://www.w3.org/1999/xlink" x="0px" y="0px"
	 viewBox="0 0 1098.1 267.5" style="enable-background:new 0 0 1098.1 267.5;" xml:space="preserve">
<style type="text/css">
	.st0{clip-path:url(#SVGID_00000106144272694744881450000007614739180318749855_);}
	.st1{clip-path:url(#SVGID_00000103260697832777562470000010691484016289322158_);fill:#00CC99;}
	.st2{clip-path:url(#SVGID_00000127044246007849673950000003023910359196738980_);}
	.st3{clip-path:url(#SVGID_00000016760748661874792960000012774718474211594895_);fill:#00CC99;}
	.st4{clip-path:url(#SVGID_00000073679366806363236970000004307576200159328659_);}
	.st5{clip-path:url(#SVGID_00000077310996343030859210000018274315314150526132_);fill:#00CC99;}
	.st6{clip-path:url(#SVGID_00000145756290557643341730000002068961563882626967_);}
	.st7{clip-path:url(#SVGID_00000074434439654005115450000009775566178225378695_);fill:#00CC99;}
	.st8{clip-path:url(#SVGID_00000083777864546338228480000006811604735435348100_);}
	.st9{clip-path:url(#SVGID_00000021085919123101998580000003967852637097522050_);fill:#00CC99;}
	.st10{clip-path:url(#SVGID_00000057143724113898971810000015903765053393334676_);}
	.st11{clip-path:url(#SVGID_00000026131285984804935240000010109287090556648603_);fill:#00CC99;}
	.st12{clip-path:url(#SVGID_00000039114612294793438460000015534335022407785656_);}
	.st13{clip-path:url(#SVGID_00000115497609458215236120000015027073741718049415_);fill:#00CC99;}
	.st14{clip-path:url(#SVGID_00000140726462462080743640000011854433852068965760_);}
	.st15{clip-path:url(#SVGID_00000125598879130242847370000014310136614481728161_);fill:#00CC99;}
</style>
<g>
	<g>
		<defs>
			<path id="SVGID_1_" d="M289.1,119.4L231.4,19.4C226.8,11.5,215.6,5,206.5,5H91c-9.1,0-20.3,6.5-24.8,14.4L8.4,119.4
				c-4.5,7.9-4.5,20.8,0,28.7l57.8,100.1c4.6,7.9,15.7,14.4,24.8,14.4h115.5c9.1,0,20.3-6.5,24.8-14.4l57.8-100.1
				C293.7,140.2,293.7,127.3,289.1,119.4 M265.9,138.7l-54.3,94.1c-1.2,2.1-6.1,4.9-8.5,4.9H94.4c-2.4,0-7.3-2.8-8.5-4.9l-54.3-94.1
				c-1.2-2.1-1.2-7.7,0-9.9l54.3-94.1c1.2-2.1,6.1-4.9,8.5-4.9h108.6c2.4,0,7.3,2.8,8.5,4.9l54.3,94.1
				C267.1,131,267.1,136.6,265.9,138.7"/>
		</defs>
		<clipPath id="SVGID_00000026870809019805259380000010493114289159333559_">
			<use xlink:href="#SVGID_1_"  style="overflow:visible;"/>
		</clipPath>
		<g style="clip-path:url(#SVGID_00000026870809019805259380000010493114289159333559_);">
			<g>
				<defs>
					<rect id="SVGID_00000040576841417069423860000011499903667410804140_" x="-54" y="-164.1" width="1200" height="600"/>
				</defs>
				<clipPath id="SVGID_00000176041504127873032920000014898857887325085356_">
					<use xlink:href="#SVGID_00000040576841417069423860000011499903667410804140_"  style="overflow:visible;"/>
				</clipPath>
				
					<rect style="clip-path:url(#SVGID_00000176041504127873032920000014898857887325085356_);fill:#00CC99;" width="297.5" height="267.6"/>
			</g>
		</g>
	</g>
</g>
<g>
	<g>
		<defs>
			<rect id="SVGID_00000026845613330048297430000001883107275682187694_" x="62.9" y="135.5" width="85.8" height="18.2"/>
		</defs>
		<clipPath id="SVGID_00000116196402138786535960000000277747494791136424_">
			<use xlink:href="#SVGID_00000026845613330048297430000001883107275682187694_"  style="overflow:visible;"/>
		</clipPath>
		<g style="clip-path:url(#SVGID_00000116196402138786535960000000277747494791136424_);">
			<g>
				<defs>
					<rect id="SVGID_00000029042634306928849880000010035430983515671183_" x="-54" y="-164.1" width="1200" height="600"/>
				</defs>
				<clipPath id="SVGID_00000160898505546292179690000010015313580978567846_">
					<use xlink:href="#SVGID_00000029042634306928849880000010035430983515671183_"  style="overflow:visible;"/>
				</clipPath>
				
					<rect x="57.9" y="130.5" style="clip-path:url(#SVGID_00000160898505546292179690000010015313580978567846_);fill:#00CC99;" width="95.8" height="28.2"/>
			</g>
		</g>
	</g>
</g>
<g>
	<g>
		<defs>
			<rect id="SVGID_00000090263133144662259460000010453734822545057970_" x="79.8" y="168.2" width="69" height="18.2"/>
		</defs>
		<clipPath id="SVGID_00000151513594437107682680000015456862501635618959_">
			<use xlink:href="#SVGID_00000090263133144662259460000010453734822545057970_"  style="overflow:visible;"/>
		</clipPath>
		<g style="clip-path:url(#SVGID_00000151513594437107682680000015456862501635618959_);">
			<g>
				<defs>
					<rect id="SVGID_00000127761234471312119550000013684906329673199787_" x="-54" y="-164.1" width="1200" height="600"/>
				</defs>
				<clipPath id="SVGID_00000058555395109763311490000017339072448139078569_">
					<use xlink:href="#SVGID_00000127761234471312119550000013684906329673199787_"  style="overflow:visible;"/>
				</clipPath>
				
					<rect x="74.8" y="163.2" style="clip-path:url(#SVGID_00000058555395109763311490000017339072448139078569_);fill:#00CC99;" width="79" height="28.2"/>
			</g>
		</g>
	</g>
</g>
<g>
	<g>
		<defs>
			<rect id="SVGID_00000127019776833639035260000011421880764440608180_" x="96.6" y="200.9" width="52.2" height="18.2"/>
		</defs>
		<clipPath id="SVGID_00000043424554783952040060000012981054566414982794_">
			<use xlink:href="#SVGID_00000127019776833639035260000011421880764440608180_"  style="overflow:visible;"/>
		</clipPath>
		<g style="clip-path:url(#SVGID_00000043424554783952040060000012981054566414982794_);">
			<g>
				<defs>
					<rect id="SVGID_00000106857528999671592750000006450405566955034516_" x="-54" y="-164.1" width="1200" height="600"/>
				</defs>
				<clipPath id="SVGID_00000082356399699825111070000011313903961012253328_">
					<use xlink:href="#SVGID_00000106857528999671592750000006450405566955034516_"  style="overflow:visible;"/>
				</clipPath>
				
					<rect x="91.6" y="195.9" style="clip-path:url(#SVGID_00000082356399699825111070000011313903961012253328_);fill:#00CC99;" width="62.2" height="28.2"/>
			</g>
		</g>
	</g>
</g>
<g>
	<g>
		<defs>
			<path id="SVGID_00000026159796289769879720000004633890849351494060_" d="M493.2,98.5v0.3c0,3-1.5,4.4-4.4,4.4h-131
				c-3,0-4.4-1.5-4.4-4.4v-0.3c0-3,1.5-4.4,4.4-4.4h57.1V68c0-2.9,1.5-4.4,4.4-4.4h7.9c3,0,4.4,1.5,4.4,4.4V94h57.2
				C491.7,94,493.2,95.5,493.2,98.5 M403.7,131.9c-7.7,24.6-18.5,47.4-33.4,69.3c-1.6,2.3-3.6,2.6-6.1,1.3l-5.1-2.8
				c-2.6-1.5-3.1-3.6-1.5-6.1c12.5-19.2,22.8-41.6,30.5-66.9c0.8-2.8,2.8-3.8,5.6-2.8l7.2,2.5C403.6,127.3,404.5,129.3,403.7,131.9
				 M455,125.5c13.8,23.8,25.7,46.9,35.4,69.3c1.2,2.6,0.3,4.8-2.3,5.9l-6.5,2.8c-2.6,1.1-4.6,0.2-5.7-2.5
				c-10.3-24.6-21.8-47.5-33.6-68.5c-1.5-2.6-0.8-4.8,1.6-6.1l5.2-2.8C451.5,122.4,453.5,123,455,125.5"/>
		</defs>
		<clipPath id="SVGID_00000177457620130815315010000005832102725607738021_">
			<use xlink:href="#SVGID_00000026159796289769879720000004633890849351494060_"  style="overflow:visible;"/>
		</clipPath>
		<g style="clip-path:url(#SVGID_00000177457620130815315010000005832102725607738021_);">
			<g>
				<defs>
					<rect id="SVGID_00000075156650862683858210000013415040993361493892_" x="-54" y="-164.1" width="1200" height="600"/>
				</defs>
				<clipPath id="SVGID_00000011739016936690137430000001723960115361115821_">
					<use xlink:href="#SVGID_00000075156650862683858210000013415040993361493892_"  style="overflow:visible;"/>
				</clipPath>
				
					<rect x="348.3" y="58.6" style="clip-path:url(#SVGID_00000011739016936690137430000001723960115361115821_);fill:#00CC99;" width="149.9" height="150.4"/>
			</g>
		</g>
	</g>
</g>
<g>
	<g>
		<defs>
			<path id="SVGID_00000024693231585467547060000003918646830825002140_" d="M601.1,65.7c-0.7,1.3-1.3,2.9-2.3,4.9h49.5
				c3,0,4.4,1.5,4.4,4.4v0.3c0,2.3-0.5,3.8-1.8,5.6c-3.6,4.4-8.8,9.8-15.6,16.2h44.4c3,0,4.4,1.5,4.4,4.4v85.9
				c0,17.4-2.1,19.7-21.6,19.7c-2,0-8.7-0.3-19.8-0.6c-3-0.2-4.6-1.6-4.6-4.4c-0.2-2.8,1.5-4.3,4.6-4.1c10.5,0.3,16.4,0.8,18,0.8
				c7,0,7.2-0.2,7.2-10.8v-18.8h-90.7c-2.3,13.4-7,25.7-15.1,37.5c-1.6,2.5-3.9,2.8-6.2,1l-4.8-3.9c-2.1-1.8-2.5-3.8-1.2-6.1
				c10-16.4,13.9-35.9,13.9-69.6v-13.3l-6.9,5.6c-2.5,2-4.8,1.5-6.1-1.3l-1.6-3.3c-1.2-2.5-0.8-4.3,1.3-6.1
				c15.2-12.8,27.2-28.8,35.9-47.9c1.2-2.5,3-3.3,5.6-2.8l6.1,1.1C601.2,60.8,602.4,62.9,601.1,65.7z M578.5,161.1h35v-24.4h-33.4
				C579.9,145.5,579.5,153.4,578.5,161.1z M580.1,128.8h33.4v-23.3h-33.4V128.8z M580.9,97.2h37.5c5.2-4.8,11.1-10.8,17.8-18.5
				h-42.1C591.1,83.9,586.8,89.9,580.9,97.2z M629.6,128.8h38.3v-23.3h-38.3V128.8z M629.6,161.1h38.3v-24.4h-38.3V161.1z"/>
		</defs>
		<clipPath id="SVGID_00000075126351286925709280000003676867983722584983_">
			<use xlink:href="#SVGID_00000024693231585467547060000003918646830825002140_"  style="overflow:visible;"/>
		</clipPath>
		<g style="clip-path:url(#SVGID_00000075126351286925709280000003676867983722584983_);">
			<g>
				<defs>
					<rect id="SVGID_00000178883503868443926330000006902734024638059179_" x="-54" y="-164.1" width="1200" height="600"/>
				</defs>
				<clipPath id="SVGID_00000023273443583654794710000002279569285143176126_">
					<use xlink:href="#SVGID_00000178883503868443926330000006902734024638059179_"  style="overflow:visible;"/>
				</clipPath>
				
					<rect x="543.7" y="53.8" style="clip-path:url(#SVGID_00000023273443583654794710000002279569285143176126_);fill:#00CC99;" width="145.4" height="159.9"/>
			</g>
		</g>
	</g>
</g>
<g>
	<g>
		<defs>
			<path id="SVGID_00000035526044743739369110000014491530547731910035_" d="M864.4,148c0,2.5-0.8,3.9-3,5.2
				c-10.8,6.7-23.9,13.3-39.1,19.5h63.5c3,0,4.4,1.5,4.4,4.4c0,2.5-1.5,3.8-4.4,3.8h-58.8v16.7c0,9.5-2.5,11.1-21.5,11.1
				c-6.5,0-14.1-0.2-22.8-0.7c-2.6-0.2-4.3-1.6-4.4-4.4c-0.2-2.8,1.5-4.3,4.6-4.1c10.7,0.3,17.5,0.8,20.8,0.8c7.2,0,6.4,0.8,6.4-6.7
				v-12.8h-63.5c-3,0-4.4-1.5-4.4-4.4c0-2.5,1.5-3.8,4.4-3.8h63.5v-3.1c0-3,1.5-4.4,4.4-4.4h4.6c8-3.3,16.9-7.5,27.7-13.3h-74.3
				c-3,0-4.4-1.5-4.4-4.4c0-2,1.5-3.1,4.4-3.1H860C862.9,144.4,864.4,145.7,864.4,148 M754.5,72.2c9.3-1,20.3-2.9,32.9-5.4
				c3-0.7,4.8,0.7,5.2,3.3s-0.7,4.4-3.6,4.9c-7.4,1.5-14.9,2.6-22.1,3.8l0.3,8.9h20.5c3,0,4.4,1.5,4.4,4.4c0,1.3-1.5,2-4.4,2h-20.1
				l0.5,12h19.7c3,0,4.4,1.5,4.4,4.4c0,1.3-1.5,2.1-4.4,2.1h-19.3l0.5,12.5h94.7l0.3-12.5h-19.2c-3,0-4.4-1.5-4.4-4.4
				c0-1.3,1.5-2.1,4.4-2.1h19.5l0.3-12h-19.8c-3,0-4.4-1.5-4.4-4.4c0-1.3,1.5-2,4.4-2h20.1l0.5-11.5h-21.6c-3,0-4.4-1.5-4.4-4.4
				c0-2.1,1.5-3.3,4.4-3.3h33.9c3,0,4.6,1.6,4.4,4.6l-2.3,52h5.2c3,0,4.4,1.5,4.4,4.4v18c0,3-1.5,4.4-4.4,4.4h-7.4
				c-3,0-4.4-1.5-4.4-4.4v-14.9h-114v14.9c0,3-1.5,4.4-4.4,4.4h-7.4c-3,0-4.4-1.5-4.4-4.4v-18c0-3,1.5-4.4,4.4-4.4h5.1l-2.1-48
				C750.3,74.2,751.7,72.6,754.5,72.2 M835.8,68.6c-2.5,2.5-5.4,5.1-9.2,8l8.8,6.1c2.5,1.8,2.8,3.9,0.8,6.2l-2,2.5l0.2,0.2
				c3.1,1.2,3.8,3.6,1.5,5.9c-2.5,2.6-5.6,5.2-9.3,8.2l8.8,6.1c2.5,1.8,2.6,3.8,0.8,6.2l-0.5,0.7c-1.8,2.3-3.9,2.5-6.4,0.7
				c-4.9-3.6-8.7-6.2-11.1-8c-4.4,2.6-10.2,5.6-16.9,8.2c-2.5,1-4.3,0.5-6.1-1.1c-2.1-2-1.5-4.1,1.6-5.4c3.9-1.8,8.2-4.1,12.8-6.9
				c-4.8-2.8-8.7-5.1-11.8-6.5c-2.8-1.5-3.4-3.6-1.5-6.1l1.3-1.6l-2-1.8c-2.5-2.3-2-4.8,1.2-6.1c3.9-1.6,8.2-3.9,12.8-6.9
				c-4.8-2.8-8.7-5.1-11.8-6.6c-2.8-1.5-3.3-3.6-1.5-6.1c1.3-1.8,3.1-2.1,5.6-1c6.7,2.9,11.8,5.6,15.7,7.9c2.6-2.1,5.4-4.6,8.5-7.9
				c1.6-2,3.6-2.5,6.1-1.5l2,0.8C837.4,64.1,838,66.3,835.8,68.6 M800,91.1c7.5,3.4,13.4,6.7,17.7,9.2c3.1-2.5,6.7-5.9,10.8-10.6
				c-3-2-6.2-4.4-10.3-7.2C813.6,85.2,807.6,88.1,800,91.1"/>
		</defs>
		<clipPath id="SVGID_00000105407235409124536890000007103757891725382276_">
			<use xlink:href="#SVGID_00000035526044743739369110000014491530547731910035_"  style="overflow:visible;"/>
		</clipPath>
		<g style="clip-path:url(#SVGID_00000105407235409124536890000007103757891725382276_);">
			<g>
				<defs>
					<rect id="SVGID_00000141425931522243589350000012334184946413262245_" x="-54" y="-164.1" width="1200" height="600"/>
				</defs>
				<clipPath id="SVGID_00000029737026990156480190000004283536322664197249_">
					<use xlink:href="#SVGID_00000141425931522243589350000012334184946413262245_"  style="overflow:visible;"/>
				</clipPath>
				
					<rect x="737.2" y="56.4" style="clip-path:url(#SVGID_00000029737026990156480190000004283536322664197249_);fill:#00CC99;" width="158" height="157.3"/>
			</g>
		</g>
	</g>
</g>
<g>
	<g>
		<defs>
			<path id="SVGID_00000142136045193201776190000010550834291494895501_" d="M989.9,80.9c-8.7,22.1-12.6,30-15.7,37.8
				c11.9,14.6,14.7,23.4,14.7,36.4c0,13.8-6.6,20.8-22.9,20.8c-2.5,0-3.9-1.3-4.4-3.9s1-4.3,4.1-4.3h-1.3c7,0,9.8-3,9.8-15.1
				c0-11.6-3.3-19.5-12-31c-1.6-2-1.8-3.8-0.8-6.1c5.2-12,11-25.1,14.9-38.8h-19.5v126.3c0,3-1.5,4.4-4.4,4.4h-5.6
				c-3,0-4.4-1.5-4.4-4.4V73.4c0-2.9,1.5-4.4,4.4-4.4h39.8c2.9,0,4.4,1.5,4.4,4.4v2C991,77.3,990.7,78.8,989.9,80.9 M1082.2,139.3
				c0,3-1.5,4.4-4.4,4.4h-22.4v45.7c0,7.5-1.2,7.4,8,7.4c5.2,0,6.1,0,7.7-4.4c0.7-1.8,1.3-9,1.6-20.8c0.2-3.1,1.8-4.6,4.8-4.3
				l6.4,0.7c2.8,0.3,4.1,1.8,4.1,4.8c-0.2,4.9-0.2,7.9-0.7,12.8c-0.5,6.4-0.5,13-5.9,17.2c-2,1.6-5.2,1.8-7.4,2.3
				c-1.5,0.3-8.7,0.5-11.1,0.5c-20.5,0-23.7-2-23.7-12v-49.8h-9.5c-0.3,34.2-11,50.1-44.5,62.9c-2.5,1-4.4,0.3-5.9-2l-0.5-1
				c-1.6-2.6-0.8-4.8,2-5.9c24.1-9.7,32.4-23.4,33.1-54.1h-15.2c-2.9,0-4.4-1.5-4.4-4.4c0-2.8,1.5-4.3,4.4-4.3h79.3
				C1080.8,135,1082.2,136.5,1082.2,139.3 M1084.5,84.5v22c0,3-1.5,4.4-4.4,4.4h-7.5c-2.9,0-4.4-1.5-4.4-4.4v-18H1008v18
				c0,3-1.5,4.4-4.4,4.4h-7c-2.9,0-4.4-1.5-4.4-4.4v-22c0-2.9,1.5-4.4,4.4-4.4h31.6V66.3c0-2.9,1.5-4.4,4.4-4.4h7.9
				c2.9,0,4.4,1.5,4.4,4.4v13.8h35.2C1083,80.1,1084.5,81.6,1084.5,84.5 M1065.4,109.1c0,2.8-1.5,4.3-4.4,4.3h-45.4
				c-2.9,0-4.4-1.5-4.4-4.4c0-2.6,1.5-3.9,4.4-3.9h45.4C1063.9,105,1065.4,106.5,1065.4,109.1"/>
		</defs>
		<clipPath id="SVGID_00000001648788023688652080000007402985849303809692_">
			<use xlink:href="#SVGID_00000142136045193201776190000010550834291494895501_"  style="overflow:visible;"/>
		</clipPath>
		<g style="clip-path:url(#SVGID_00000001648788023688652080000007402985849303809692_);">
			<g>
				<defs>
					<rect id="SVGID_00000134943318537037227830000001513924617225247905_" x="-54" y="-164.1" width="1200" height="600"/>
				</defs>
				<clipPath id="SVGID_00000018944187901205600590000003482929447848391825_">
					<use xlink:href="#SVGID_00000134943318537037227830000001513924617225247905_"  style="overflow:visible;"/>
				</clipPath>
				
					<rect x="937.4" y="56.9" style="clip-path:url(#SVGID_00000018944187901205600590000003482929447848391825_);fill:#00CC99;" width="155.6" height="155.7"/>
			</g>
		</g>
	</g>
</g>
</svg>
